<?xml version="1.0" encoding="utf-8"?>
<!-- Generator: Adobe Illustrator 23.1.0, SVG Export Plug-In . SVG Version: 6.00 Build 0)  -->
<svg version="1.1" id="Layer_2" xmlns="http://www.w3.org/2000/svg" xmlns:xlink="http://www.w3.org/1999/xlink" x="0px" y="0px"
	 viewBox="0 0 359 98" style="enable-background:new 0 0 359 98;" xml:space="preserve">
<style type="text/css">
	.st0{fill:#00AD8E;}
	.st1{enable-background:new    ;}
</style>
<path class="st0" d="M0.2,29.4c0,0,44.6-23.2,109.1-2.2C49.2,13.2,5.6,35.4,5.6,35.4L0.2,29.4 M55.3,8.9c0-3.9,3.2-7.1,7.1-7.1
	s7.1,3.2,7.1,7.1S66.3,16,62.4,16S55.3,12.8,55.3,8.9C55.3,8.9,55.3,8.8,55.3,8.9 M0.2,29.4c0,0,44.6-23.2,109.1-2.2
	C49.2,13.2,5.6,35.4,5.6,35.4L0.2,29.4 M55.3,8.9c0-3.9,3.2-7.1,7.1-7.1s7.1,3.2,7.1,7.1S66.3,16,62.4,16S55.3,12.8,55.3,8.9
	C55.3,8.9,55.3,8.8,55.3,8.9 M59.8,32.5c0.7-2.5,1.3-4.9,2-7.2c16.2-1.8,32.6-0.4,48.3,3.9c-15.2-1.2-30.4-0.3-45.3,2.9l-6.3,57.4
	c0.7,0,1.4,0,2.1,0c23.6,0,42.7-18.1,42.7-40.3c0.5,2.4,0.7,4.8,0.6,7.3c0,22-22.2,39.8-49.6,39.8C30,96.3,9.7,82.1,5.6,63.5
	l12.4-12c0.8,11.6,6.6,22.3,16,29.2c2.4-8,9.4-29.3,18.3-45.4C30.5,42,18.4,51.5,18.4,51.5l-7.8-10.1c0,0,19.3-12.1,48.7-15.7
	c-0.8,1.7-1.6,4.1-2.8,7.5L59.8,32.5 M56.3,46.8c0.8-3.8,1.8-7.6,2.7-11.2l-3.6,0.8c-1.3,3.5-2.6,7.7-3.9,12L56.3,46.8z M53.2,63.4
	c0.8-4.1,1.7-8.9,2.6-13.3l-5.3,1.7c-1.4,4.5-2.7,9.2-4,13.6L53.2,63.4z M45.6,68.9c-2,7.3-2.3,9.7-4,17l7.4,2.6
	c0,0,1.3-9.7,3.4-21.7L45.6,68.9z"/>
<g class="st1">
	<path d="M149.2,42.7h-1.6v-1.3h-10.2v1.3h-1.6V32.2c-1,0.6-2.2,1-3.3,1.4l-1.1-1.3c3.1-0.9,6.2-2.6,8.4-5.3h-7.2v-1.5h9.1v-2.3
		c-2.4,0.2-4.9,0.3-7.6,0.4l-1.1-1.5c7.2,0,13.6-0.9,17.1-1.8l1.2,1.2c-2.5,0.8-5.3,1.2-8,1.5v2.5h9.2V27h-7.4
		c1.7,2.5,6.2,4.9,9.2,5.3l-1.1,1.3c-1.7-0.3-2.4-0.7-4-1.4V42.7z M141.7,27c-1.5,2.2-3.4,3.8-5.5,4.9l5.5,0V27z M147.6,33.5h-10.2
		v2.3h10.2V33.5z M147.6,39.8v-2.5h-10.2v2.5H147.6z M143.3,27l0,5h5.5C147.4,31.2,144.5,29.3,143.3,27z"/>
	<path d="M160.1,30.6c-0.7-1.3-2.1-2.5-3.6-3l0.9-1.1c1.5,0.5,3.2,1.7,3.9,3.1L160.1,30.6z M156.7,41.7c2-2.1,3.2-5.9,3.6-8.9
		l1.4,0.5c-0.5,3.3-1.6,6.5-3.5,9.2L156.7,41.7z M161.2,25c-0.6-1.4-2.6-2.6-3.7-2.9l1.2-1c1.4,0.5,2.8,1.4,3.7,2.8L161.2,25z
		 M167.5,41.7c-1.2,0-1.9-0.6-1.9-1.5v-7.4c-0.9,0.7-1.6,1.3-2.6,1.8l-1-1.2c1.9-0.9,3.6-2.4,4.5-4.3h-4.1v-1.5h3.9v-3.1h-2.9V23
		h2.9v-2.9h1.5V23h4.7v-2.9h1.5V23h2.9v1.5h-2.9v3.1h3.9V29h-4c0.6,1.5,2.8,3.4,5.1,4.5l-1.1,1.2c-1.1-0.5-2.2-1.3-3.1-2.3v4.9h-7.9
		v2.2c0,0.4,0.2,0.7,0.9,0.7h6.9c1.4,0,1.2-1.5,1.2-2.5h1.5c-0.1,1.6-0.1,3.9-2.3,3.9H167.5z M168.2,29c-0.3,1-0.9,1.8-1.6,2.6h7.6
		c-0.7-0.8-1.3-1.7-1.8-2.6H168.2z M167.1,35.9h6.3v-2.8h-6.3V35.9z M167.9,24.5v3.1h4.7v-3.1H167.9z"/>
	<path d="M186.6,34.2l-3.4,1.5l-1.2-1.3l4.4-1.8V27h-2.1c-0.4,1.4-0.9,2.5-1.6,3.9l-1.4-0.8c1.4-2.3,2-4.5,2.3-7.2l1.5,0.4
		c0,0.6-0.2,1.4-0.3,2.2h1.7v-5.4l1.5,0l0,5.4h2.3l0,1.5h-2.3l0,4.7l2.5-1v1.6l-2.4,1.1l0,9.2h-1.5V34.2z M195.8,41
		c0.9,0.1,1.9,0.2,2.9,0.1c0.2-0.1,0.5-0.3,0.6-0.5l0-0.5v-5.5h-8.7v-1.5h8.7v-2.3h1.5l0,2.3h3v1.5h-3v6.1c0,0.7-0.6,1.4-1.3,1.7
		c-1,0.3-2.1,0.1-3.2,0.1L195.8,41z M203.4,28.6v1.5h-12.2v-1.5h5.2l0-3.8l-4.3,0l0-1.5h4.2V20h1.6v3.3h4.5l0,1.5h-4.5l0,3.8H203.4z
		 M195.5,39.4c-1-1.3-2.3-2.4-3.7-3l1-1c1.5,0.5,2.8,1.7,3.9,3L195.5,39.4z"/>
	<path d="M214,29.1c0,1-0.2,2.2-0.3,2.9h5.9c0,2.2-0.3,4.4-0.7,6.6c-0.2,0.9-0.5,2.6-1.9,3.3c-0.4,0.2-1.2,0.3-1.9,0.3
		c-0.7-0.1-1.3-0.2-1.9-0.3l-0.4-1.8c0.5,0.2,1.5,0.4,2,0.5c0.9,0.1,1.5,0.1,1.9-0.5c0.7-1.1,1.1-4.2,1.1-6.4h-4.3
		c-0.4,3.5-1.9,6.9-4.9,9.1l-1.3-1.2c2.3-1.4,4.3-5.1,4.5-7.9h-4V32h4.3c0.1-1,0.2-2.1,0.3-3.2L214,29.1z M208.9,28.7v-7.5h10v7.5
		H208.9z M210.5,22.7v4.5h6.8v-4.5H210.5z M223.6,22.6v14.6h-1.6V22.6H223.6z M222.4,41c1.3,0.1,2.2,0.2,3.1,0
		c0.5,0,0.7-0.2,0.7-0.7V20.2h1.6v20.5c0,1-0.4,1.9-1.6,1.9h-3L222.4,41z"/>
	<path d="M235.7,32.5c-0.8,0.7-2.3,1.7-3,2.2c-0.5-0.5-1-0.8-1.3-1.2c3.1-1.7,5.7-4.6,7.7-7.5l1.3,0.8c-0.6,1.1-2.1,2.8-3.1,4v11.7
		h-1.6V32.5z M239.2,20.6c-1.6,2.5-3.6,5-6.1,6.8c-0.1,0-0.1-0.1-0.2-0.2l-1.1-1c2.5-1.7,4.6-4.1,6.2-6.6L239.2,20.6z M240.9,29.4
		v-1.5l12.9,0v1.5h-4.6v11c-0.1,0.8-0.4,1.3-1,1.7c-0.5,0.3-1,0.3-1.6,0.3h-2.7c-0.1-0.5-0.4-1-0.5-1.6c1.1,0.1,2.2,0.1,3.4,0.1
		c0.3-0.1,0.7-0.3,0.8-0.8V29.4H240.9z M252.2,23.2h-10.7v-1.5h10.7V23.2z"/>
	<path d="M269.3,37.2c-1.6,0.6-3.3,1.2-5,1.8l-7.1,2.5l-1.1-1.5l2.3-0.7V27.5h1.6v11.2l2.7-0.9l0-14.6h-5.4v-1.5l11.5,0v1.5h-4.4v6
		h3.4v1.5l-3.4,0l0,6.5l4.9-1.8L269.3,37.2z M271.8,20c0,1.5-0.2,3.4-0.3,4.9l7.2,0l0,1.5l-2,0l0,1c-0.2,3.3-1.2,6.3-2.9,9
		c1.3,2,3.2,4,5.3,4.9c-0.3,0.4-0.7,0.8-1,1.3c-2-1.2-3.8-2.9-5.1-4.8c0,0-0.1,0-0.1,0c-1.5,2-3.3,3.7-5.3,4.9l-1.2-1.2
		c2.2-1.3,4.2-3.1,5.7-5.2c-0.9-1.7-1.6-3.5-1.9-5.5c-0.5,1.1-1,2.1-1.6,3.1l-1.6-0.7c0.3-0.4,0.5-0.8,0.7-1.2
		c1.4-2.6,2.2-5.4,2.5-8.4c0.1-0.8,0.2-3.2,0.1-4L271.8,20z M271.4,26.4c-0.1,0.5-0.3,1-0.4,1.5c0.3,2.4,0.9,4.8,1.9,6.9l0.1,0
		c1.4-2.5,2.2-5.4,2.2-8.4L271.4,26.4z"/>
	<path d="M303,21.5V23h-17.8v16.9h18.7v1.5h-18.7v1.5h-1.5V21.5H303z M299.5,38.3c-1.1-2-2.8-4.1-4.4-5.9c-1.9,2.7-4.5,5.1-7.2,7
		l-1.1-1c2.9-1.8,5.4-4.6,7.3-7.3c-1.8-2-4.3-4.1-6.6-5.9l1.2-1c2.2,1.7,4.2,3.4,6.3,5.6c1.3-1.9,2.6-3.9,3.7-6l1.2,0.8
		c-0.8,1.5-1.5,2.8-2.5,4.3c-0.4,0.7-0.9,1.3-1.3,2l2.5,3.1c1.1,1.4,2,2.9,2.8,4.3l-1.2,1L299.5,38.3z"/>
	<path d="M319.3,37.2c-1.6,0.6-3.3,1.2-5,1.8l-7.1,2.5l-1.1-1.5l2.3-0.7V27.5h1.6v11.2l2.7-0.9l0-14.6h-5.4v-1.5l11.5,0v1.5h-4.4v6
		h3.4v1.5l-3.4,0l0,6.5l4.9-1.8L319.3,37.2z M321.8,20c0,1.5-0.2,3.4-0.3,4.9l7.2,0l0,1.5l-2,0l0,1c-0.2,3.3-1.2,6.3-2.9,9
		c1.3,2,3.2,4,5.3,4.9c-0.3,0.4-0.7,0.8-1,1.3c-2-1.2-3.8-2.9-5.1-4.8c0,0-0.1,0-0.1,0c-1.5,2-3.3,3.7-5.3,4.9l-1.2-1.2
		c2.2-1.3,4.2-3.1,5.7-5.2c-0.9-1.7-1.6-3.5-1.9-5.5c-0.5,1.1-1,2.1-1.6,3.1l-1.6-0.7c0.3-0.4,0.5-0.8,0.7-1.2
		c1.4-2.6,2.2-5.4,2.5-8.4c0.1-0.8,0.2-3.2,0.1-4L321.8,20z M321.4,26.4c-0.1,0.5-0.3,1-0.4,1.5c0.3,2.4,0.9,4.8,1.9,6.9l0.1,0
		c1.4-2.5,2.2-5.4,2.2-8.4L321.4,26.4z"/>
	<path d="M338.8,32.2c-0.5,0.6-1.3,1.3-1.8,1.8c-0.4-0.3-0.7-0.7-1.1-0.9c0,0.2,0,0.3,0,0.5c0,3-0.7,5.6-2.3,7.9
		c-0.3,0.3-0.4,0.7-0.8,1l-1.4-0.9c1.2-1.6,2.3-3.3,2.5-5.2c0.3-0.9,0.3-1.7,0.3-2.6l0.2-11.5h8.9c-0.7-0.7-1.7-1.4-2.6-1.8
		c0.5-0.4,1-0.6,1.5-1c1.2,0.6,2.4,1.8,3.1,2.8h8v1.5h-17.3l-0.1,8.9c2.5-2.3,4.2-5.3,5.4-8.4c0.5,0.3,0.9,0.6,1.3,0.9
		c-0.7,1.6-1.3,3.2-2.3,4.7v12.7h-1.6L338.8,32.2z M350.5,28.2h3.4l0,1.5l-3.5,0v10.8c0,0.8-0.6,1.5-1.3,1.7
		c-1.1,0.2-2.4,0.1-3.5,0.1c-0.1-0.6-0.4-1.1-0.5-1.7c1,0.1,2.1,0.2,3.2,0.1c0.2-0.1,0.5-0.3,0.5-0.5V29.7l-7.1,0v-1.5h7.1v-3.4h1.6
		L350.5,28.2z M346.2,37.3c-0.8-1.6-1.7-3.2-3.2-4.5c0.3-0.3,0.7-0.6,1.1-1c0.6,0.4,1.1,1.1,1.6,1.6c0.8,0.9,1.3,2,1.9,3L346.2,37.3
		z"/>
</g>
<g class="st1">
	<path d="M130.6,86.5c2.2-1.6,3.8-3.5,5.4-5.2V70.4h-4.2v-2.9l7.2,0v13.7c2.4,2.5,5.4,4.1,9,4.1h15.4l4.3-0.2l-1.3,3.1l-19.6,0
		c-3.3,0-7.3-2-8.9-4.5l-5,5.3L130.6,86.5z M135.9,54.6c2.6,1.5,4.6,3.6,6.1,6l-2.6,2c-1.2-2.5-3.4-4.5-5.8-6.1L135.9,54.6z
		 M142.7,79.4c2-1.7,6.7-7.5,8.1-11.2l-9.7,0v-3h25.3v3h-14.5l2,1.1c-2.4,4.6-4.4,7.6-6.8,9.4l11.6-1c-0.7-0.9-2.3-2.4-4-4.1L157,72
		c3.3,2.8,6.1,5.9,7.8,9.8l-2.6,2c-0.5-1.5-1.2-2.4-1.7-3.3c-3.5,0.3-10.8,1.2-16.4,1.8L142.7,79.4z M143.4,59.7v-2.9h20.7v2.9
		H143.4z"/>
	<path d="M173.5,69.9c1.1-2.4,2.3-4.8,2.8-7h-3.6V60h4.2c0.4-1.4,0.5-4,0.8-6.2l2.9,0.9c-0.1,1.8-0.5,4.1-0.7,5.3h6.5v2.9h-7.1
		c-0.8,3-1.3,4.4-2.6,7h2.8v-4.7h3v4.7h3.4v2.9h-3.4v4.4l3.5-1.2v2.9l-3.5,1.2v10.1h-3V81l-5.7,1.8l-1.2-2.8c2.4-0.6,4.5-1.1,7-2
		v-5.4h-6V69.9z M197,55.2c2.6,3.6,6.9,7.4,11.4,8.9l-1.9,2.5c-2.1-0.7-3.9-1.8-4.8-2.7v1.3h-11.3v-1.3c-1.1,1.1-2.7,2.3-4.3,3.3
		l-2.6-2c4.8-2.8,9.2-7.3,11.4-12.4l2.6,1.2L197,55.2z M193.2,86.7c0.3,0,0.7-0.2,0.7-0.5v-4h-3.7V90h-2.9V67.8h9.6v18.9
		c0,1.3-0.6,2.4-2.5,2.4h-1.9l-1.1-2.6L193.2,86.7z M190.1,73.3h3.7v-2.7h-3.7V73.3z M193.8,79.4v-3.3h-3.7v3.3H193.8z M199.8,62.3
		c-1.3-1.1-2.9-3-4-4.7c-0.8,1.3-2.4,3.1-3.8,4.7H199.8z M198,83.7V69.1h2.8v14.6H198z M201.6,87.1c0.3,0,0.6-0.3,0.6-0.7l0-19.5
		h2.9l0,20.4c0,1.3-0.5,2.6-2.8,2.6H200l-1-2.9L201.6,87.1z"/>
	<path d="M240.1,68.1c1.7-1.1,3.4-2.3,5.1-3.8l2.3,1.9c-2.2,2.1-4.6,3.7-5.8,4.2l7.4,0.1v3h-12.8c-2.3,1.1-4.7,2.1-4.9,2.1l11.6,0
		l0,14.4l-3.1,0v-2.1h-14.4l0,2.2h-3.2V78.6c-1.8,0.5-4.8,1.2-7.5,1.8l-1.6-2.9c6.3-1.3,12-3,15.8-4.1l-14.7,0v-3h14.3V69h-10.6
		v-2.9l10.6,0v-2H216l0-8.7h30.6V64h-14.9v2h8.4V68.1z M219.1,61l6,0l0-2.8h-6L219.1,61z M225.3,78.6l0,1.7l14.4,0v-1.8L225.3,78.6z
		 M225.3,84.9l14.4,0v-1.7l-14.4,0V84.9z M228.2,58.2V61l6.1,0l0-2.8L228.2,58.2z M231.7,70.4h4c0.9-0.4,2-1,2.9-1.4l-6.9-0.1V70.4z
		 M237.4,61l6.1,0l0-2.9l-6.1,0V61z"/>
</g>
</svg>
